<?xml version="1.0" standalone="no"?>
<!DOCTYPE svg PUBLIC "-//W3C//DTD SVG 20010904//EN"
 "http://www.w3.org/TR/2001/REC-SVG-20010904/DTD/svg10.dtd">
<svg version="1.0" xmlns="http://www.w3.org/2000/svg"
 width="72.000000pt" height="72.000000pt" viewBox="0 0 72.000000 72.000000"
 preserveAspectRatio="xMidYMid meet">
<metadata>
Created by potrace 1.11, written by Peter Selinger 2001-2013
</metadata>
<g transform="translate(0.000000,72.000000) scale(0.100000,-0.100000)"
fill="#000000" stroke="none">
<path d="M307 699 c-15 -4 -27 -5 -27 -2 0 3 -6 0 -13 -6 -8 -6 -17 -8 -20 -4
-4 3 -13 0 -22 -7 -8 -7 -15 -9 -15 -4 0 5 -7 0 -16 -11 -8 -11 -17 -19 -19
-17 -14 7 -27 -2 -69 -43 -24 -25 -48 -54 -51 -65 -4 -11 -10 -20 -14 -20 -4
0 -8 -6 -9 -12 -5 -45 -15 -77 -22 -73 -10 6 -8 -15 3 -32 5 -7 5 -13 0 -13
-4 0 -8 -18 -8 -40 0 -22 3 -40 8 -40 4 0 7 -5 7 -11 0 -5 -6 -7 -12 -3 -10 6
-10 4 0 -8 7 -9 12 -20 10 -24 -5 -21 54 -113 101 -156 28 -26 51 -45 51 -43
0 3 15 -4 33 -15 17 -11 40 -20 50 -20 10 0 16 -4 13 -8 -3 -5 8 -6 25 -4 16
2 35 -1 43 -7 10 -9 16 -9 21 -1 5 8 10 8 20 0 9 -8 15 -8 20 0 9 15 28 13 19
-3 -4 -6 2 -4 13 6 15 13 23 15 28 7 5 -8 11 -5 21 7 7 10 14 14 14 9 0 -5 7
-3 15 4 8 6 20 8 26 4 7 -4 9 -3 6 3 -4 6 6 16 20 22 22 10 24 14 12 22 -7 5
-10 9 -5 9 5 0 1 9 -9 20 -10 11 -15 20 -12 20 4 0 0 8 -8 18 -8 9 -21 25 -28
36 -12 17 -17 17 -53 5 -21 -8 -42 -18 -46 -24 -5 -6 -8 -4 -8 4 0 11 -3 12
-12 3 -7 -7 -17 -8 -29 -2 -12 7 -20 6 -24 0 -4 -6 -17 -3 -35 10 -15 11 -32
20 -37 20 -5 0 -16 11 -23 25 -7 14 -17 25 -22 25 -4 0 -8 7 -8 15 0 8 -5 15
-11 15 -5 0 -7 5 -4 10 3 6 1 10 -5 10 -6 0 -9 4 -6 8 4 7 16 75 18 110 1 6 5
12 10 12 5 0 6 5 3 10 -3 6 -1 10 5 10 6 0 9 4 6 8 -5 8 23 38 35 37 4 0 16 9
28 19 12 11 21 16 21 12 0 -4 9 -2 19 4 14 7 21 6 24 -3 3 -7 6 -8 6 -1 1 11
39 9 71 -3 28 -11 44 -12 59 -3 9 5 12 10 7 10 -5 0 -3 7 4 15 7 8 9 15 4 15
-5 0 -4 4 3 8 6 4 13 14 15 22 2 8 10 21 18 28 11 10 12 15 3 18 -7 3 -13 12
-13 20 0 7 -6 11 -14 8 -8 -3 -17 -1 -21 5 -3 6 -17 11 -31 11 -17 0 -23 4
-18 13 5 9 4 9 -5 1 -7 -6 -31 -8 -60 -4 -26 3 -60 3 -74 -1z"/>
</g>
</svg>
